<?xml version="1.0" encoding="UTF-8"?>
<!DOCTYPE svg PUBLIC "-//W3C//DTD SVG 1.1//EN" "http://www.w3.org/Graphics/SVG/1.1/DTD/svg11.dtd">
<!-- Creator: CorelDRAW -->
<svg xmlns="http://www.w3.org/2000/svg" xml:space="preserve" width="42.2059mm" height="62.9266mm" version="1.1" shape-rendering="geometricPrecision" text-rendering="geometricPrecision" image-rendering="optimizeQuality" fill-rule="evenodd" clip-rule="evenodd"
viewBox="0 0 125.93 187.75"
 xmlns:xlink="http://www.w3.org/1999/xlink"
 xmlns:xodm="http://www.corel.com/coreldraw/odm/2003">
 <g id="Layer_x0020_1">
  <metadata id="CorelCorpID_0Corel-Layer"/>
  <g id="_1639218574944">
   <path fill="#068A9D" d="M62.67 41.34c-6.05,3.79 -11.12,11.67 -16.62,17.09 -8.96,8.83 -25.76,23.98 -33.51,33.88 -29.78,38.01 -4.05,96 51.19,95.44 55.92,-0.56 89.17,-64.63 33.72,-112.74 -6.82,-5.92 -29.75,-31.62 -34.78,-33.67zm0.25 33.12c-12.95,13.14 -32.46,29.23 -35.95,46.07 -5.12,24.7 13.06,43.6 35.7,43.77 35.06,0.27 51.93,-41.05 20.46,-69.71 -6.89,-6.28 -13.38,-14.75 -20.21,-20.13z"/>
   <path fill="#068A9D" d="M56.81 111.84c-26.16,9.34 -10.63,43.6 13.08,35.6 22.55,-7.61 11.88,-44.51 -13.08,-35.6z"/>
   <path fill="#068A9D" d="M26.43 15.05c1.21,4.59 2.78,4.44 5.51,7.4 4.35,-1.41 8.07,-5.27 13.43,-7.86 11.18,-5.4 23.54,-5.07 34.86,-0.19 5.76,2.48 8.75,5.81 12.97,7.93 2.81,-1.75 5.31,-3.57 6.56,-7.28 -18.7,-22.25 -59.61,-17.77 -73.33,0z"/>
   <path fill="#068A9D" d="M40.52 30.84l6.05 6.56c5.15,-2.64 8.75,-6.5 16.12,-6.66 9.44,-0.21 11.25,3.84 16.82,6.18 2.31,-1.95 4.89,-4 6.07,-7.05 -5.91,-5.16 -11.18,-9.55 -22.9,-9.46 -9.54,0.07 -19.26,4.86 -22.15,10.43z"/>
  </g>
 </g>
</svg>
