<?xml version="1.0" encoding="UTF-8"?>
<!DOCTYPE svg PUBLIC "-//W3C//DTD SVG 1.1//EN" "http://www.w3.org/Graphics/SVG/1.1/DTD/svg11.dtd">
<!-- Creator: CorelDRAW -->
<svg xmlns="http://www.w3.org/2000/svg" xml:space="preserve" width="42.2059mm" height="62.9266mm" version="1.1" shape-rendering="geometricPrecision" text-rendering="geometricPrecision" image-rendering="optimizeQuality" fill-rule="evenodd" clip-rule="evenodd"
viewBox="0 0 234.88 350.19"
 xmlns:xlink="http://www.w3.org/1999/xlink"
 xmlns:xodm="http://www.corel.com/coreldraw/odm/2003">
 <g id="Layer_x0020_1">
  <metadata id="CorelCorpID_0Corel-Layer"/>
  <g id="_1674499696912">
   <path fill="black" d="M116.89 77.1c-11.29,7.07 -20.74,21.77 -31,31.88 -16.71,16.46 -48.04,44.73 -62.5,63.19 -55.54,70.89 -7.56,179.05 95.47,178.01 104.3,-1.05 166.32,-120.54 62.89,-210.28 -12.72,-11.04 -55.49,-58.97 -64.87,-62.8zm0.47 61.77c-24.16,24.5 -60.54,54.51 -67.06,85.92 -9.56,46.06 24.36,81.32 66.58,81.64 65.4,0.5 96.85,-76.56 38.17,-130.01 -12.85,-11.71 -24.95,-27.5 -37.69,-37.55z"/>
   <path fill="black" d="M105.96 208.6c-48.78,17.42 -19.83,81.32 24.39,66.39 42.06,-14.2 22.17,-83.02 -24.39,-66.39z"/>
   <path fill="black" d="M49.3 28.07c2.26,8.56 5.18,8.28 10.28,13.81 8.11,-2.63 15.06,-9.83 25.05,-14.66 20.85,-10.07 43.9,-9.45 65.01,-0.36 10.74,4.62 16.33,10.84 24.19,14.79 5.25,-3.26 9.9,-6.65 12.24,-13.58 -34.87,-41.49 -111.18,-33.14 -136.77,0z"/>
   <path fill="black" d="M75.58 57.52l11.29 12.24c9.6,-4.92 16.32,-12.12 30.06,-12.43 17.61,-0.4 20.99,7.17 31.37,11.54 4.3,-3.63 9.12,-7.46 11.31,-13.15 -11.02,-9.63 -20.85,-17.81 -42.72,-17.65 -17.79,0.13 -35.93,9.07 -41.31,19.46z"/>
  </g>
 </g>
</svg>
